<?xml version="1.0" standalone="no"?>
<!DOCTYPE svg PUBLIC "-//W3C//DTD SVG 1.1//EN"
"http://www.w3.org/Graphics/SVG/1.1/DTD/svg11.dtd">

<svg width="464" height="773" view_box="0 0 464 773"
xmlns="http://www.w3.org/2000/svg"
xmlns:link="http://www.w3.org/1999/xlink">\n\n<desc>Généré par Mocodo 2.3.7 le Sun, 10 Feb 2019 03:13:37</desc>

<rect id="frame" x="0" y="0" width="464" height="773" fill="#ffffff" stroke="none" stroke-width="0"/>

<!-- Association avoir_genre -->
<line x1="55" y1="126" x2="55" y2="235" stroke="#878787" stroke-width="2"/>
<text x="60.0" y="177" fill="#b2182b" font-family="Verdana" font-size="12">1,N</text>
<line x1="176" y1="378" x2="55" y2="235" stroke="#878787" stroke-width="2"/>
<text x="111" y="343.850355925" fill="#b2182b" font-family="Verdana" font-size="12">1,N</text>
<g id="association-avoir_genre">
	<path d="M 85 210 a 14 14 90 0 1 14 14 V 235 h -88 V 224 a 14 14 90 0 1 14 -14" fill="#bababa" stroke="#bababa" stroke-width="0"/>
	<path d="M 99 235.0 v 11 a 14 14 90 0 1 -14 14 H 25 a 14 14 90 0 1 -14 -14 V 235.0 H 88" fill="#e0e0e0" stroke="#e0e0e0" stroke-width="0"/>
	<rect x="11" y="210" width="88" height="50" fill="none" rx="14" stroke="#878787" stroke-width="2"/>
	<line x1="11" y1="235" x2="99" y2="235" stroke="#878787" stroke-width="1"/>
	<text x="18" y="227.7" fill="#000000" font-family="Verdana" font-size="12">avoir_genre</text>
</g>

<!-- Association dans_playlist -->
<line x1="176" y1="630" x2="176" y2="521" stroke="#878787" stroke-width="2"/>
<text x="181.0" y="588" fill="#b2182b" font-family="Verdana" font-size="12">1,N</text>
<line x1="176" y1="378" x2="176" y2="521" stroke="#878787" stroke-width="2"/>
<text x="149.0" y="488" fill="#b2182b" font-family="Verdana" font-size="12">1,N</text>
<g id="association-dans_playlist">
	<path d="M 209 496 a 14 14 90 0 1 14 14 V 521 h -94 V 510 a 14 14 90 0 1 14 -14" fill="#bababa" stroke="#bababa" stroke-width="0"/>
	<path d="M 223 521.0 v 11 a 14 14 90 0 1 -14 14 H 143 a 14 14 90 0 1 -14 -14 V 521.0 H 94" fill="#e0e0e0" stroke="#e0e0e0" stroke-width="0"/>
	<rect x="129" y="496" width="94" height="50" fill="none" rx="14" stroke="#878787" stroke-width="2"/>
	<line x1="129" y1="521" x2="223" y2="521" stroke="#878787" stroke-width="1"/>
	<text x="136" y="513.7" fill="#000000" font-family="Verdana" font-size="12">dans_playlist</text>
</g>

<!-- Association avoir_playlist -->
<line x1="55" y1="630" x2="176" y2="739" stroke="#878787" stroke-width="2"/>
<text x="106" y="669.987991066" fill="#b2182b" font-family="Verdana" font-size="12">1,N</text>
<line x1="176" y1="630" x2="176" y2="739" stroke="#878787" stroke-width="2"/>
<text x="181.0" y="681" fill="#b2182b" font-family="Verdana" font-size="12">1,N</text>
<g id="association-avoir_playlist">
	<path d="M 210 714 a 14 14 90 0 1 14 14 V 739 h -96 V 728 a 14 14 90 0 1 14 -14" fill="#bababa" stroke="#bababa" stroke-width="0"/>
	<path d="M 224 739.0 v 11 a 14 14 90 0 1 -14 14 H 142 a 14 14 90 0 1 -14 -14 V 739.0 H 96" fill="#e0e0e0" stroke="#e0e0e0" stroke-width="0"/>
	<rect x="128" y="714" width="96" height="50" fill="none" rx="14" stroke="#878787" stroke-width="2"/>
	<line x1="128" y1="739" x2="224" y2="739" stroke="#878787" stroke-width="1"/>
	<text x="135" y="731.7" fill="#000000" font-family="Verdana" font-size="12">avoir_playlist</text>
</g>

<!-- Association interprete -->
<line x1="302" y1="126" x2="176" y2="235" stroke="#878787" stroke-width="2"/>
<text x="236" y="158.087583342" fill="#b2182b" font-family="Verdana" font-size="12">1,N</text>
<line x1="176" y1="378" x2="176" y2="235" stroke="#878787" stroke-width="2"/>
<text x="181.0" y="277" fill="#b2182b" font-family="Verdana" font-size="12">1,N</text>
<g id="association-interprete">
	<path d="M 200 210 a 14 14 90 0 1 14 14 V 235 h -76 V 224 a 14 14 90 0 1 14 -14" fill="#bababa" stroke="#bababa" stroke-width="0"/>
	<path d="M 214 235.0 v 11 a 14 14 90 0 1 -14 14 H 152 a 14 14 90 0 1 -14 -14 V 235.0 H 76" fill="#e0e0e0" stroke="#e0e0e0" stroke-width="0"/>
	<rect x="138" y="210" width="76" height="50" fill="none" rx="14" stroke="#878787" stroke-width="2"/>
	<line x1="138" y1="235" x2="214" y2="235" stroke="#878787" stroke-width="1"/>
	<text x="145" y="227.7" fill="#000000" font-family="Verdana" font-size="12">interprete</text>
</g>

<!-- Association dans_album -->
<line x1="414" y1="126" x2="302" y2="235" stroke="#878787" stroke-width="2"/>
<text x="346" y="164.837052915" fill="#b2182b" font-family="Verdana" font-size="12">1,N</text>
<line x1="176" y1="378" x2="302" y2="235" stroke="#878787" stroke-width="2"/>
<text x="219" y="345.432721851" fill="#b2182b" font-family="Verdana" font-size="12">1,N</text>
<g id="association-dans_album">
	<path d="M 332 210 a 14 14 90 0 1 14 14 V 235 h -88 V 224 a 14 14 90 0 1 14 -14" fill="#bababa" stroke="#bababa" stroke-width="0"/>
	<path d="M 346 235.0 v 11 a 14 14 90 0 1 -14 14 H 272 a 14 14 90 0 1 -14 -14 V 235.0 H 88" fill="#e0e0e0" stroke="#e0e0e0" stroke-width="0"/>
	<rect x="258" y="210" width="88" height="50" fill="none" rx="14" stroke="#878787" stroke-width="2"/>
	<line x1="258" y1="235" x2="346" y2="235" stroke="#878787" stroke-width="1"/>
	<text x="265" y="227.7" fill="#000000" font-family="Verdana" font-size="12">dans_album</text>
</g>

<!-- Association origine -->
<line x1="302" y1="126" x2="176" y2="34" stroke="#878787" stroke-width="2"/>
<text x="236" y="108.993798271" fill="#b2182b" font-family="Verdana" font-size="12">1,N</text>
<line x1="176" y1="126" x2="176" y2="34" stroke="#878787" stroke-width="2"/>
<text x="181.0" y="84" fill="#b2182b" font-family="Verdana" font-size="12">1,N</text>
<g id="association-origine">
	<path d="M 190 9 a 14 14 90 0 1 14 14 V 34 h -56 V 23 a 14 14 90 0 1 14 -14" fill="#bababa" stroke="#bababa" stroke-width="0"/>
	<path d="M 204 34.0 v 11 a 14 14 90 0 1 -14 14 H 162 a 14 14 90 0 1 -14 -14 V 34.0 H 56" fill="#e0e0e0" stroke="#e0e0e0" stroke-width="0"/>
	<rect x="148" y="9" width="56" height="50" fill="none" rx="14" stroke="#878787" stroke-width="2"/>
	<line x1="148" y1="34" x2="204" y2="34" stroke="#878787" stroke-width="1"/>
	<text x="155" y="26.7" fill="#000000" font-family="Verdana" font-size="12">origine</text>
</g>

<!-- Association etre_classee -->
<line x1="176" y1="378" x2="302" y2="521" stroke="#878787" stroke-width="2"/>
<text x="219" y="419.567278149" fill="#b2182b" font-family="Verdana" font-size="12">1,N</text>
<line x1="302" y1="630" x2="302" y2="521" stroke="#878787" stroke-width="2"/>
<text x="307.0" y="588" fill="#b2182b" font-family="Verdana" font-size="12">1,N</text>
<g id="association-etre_classee">
	<path d="M 333 496 a 14 14 90 0 1 14 14 V 521 h -90 V 510 a 14 14 90 0 1 14 -14" fill="#bababa" stroke="#bababa" stroke-width="0"/>
	<path d="M 347 521.0 v 11 a 14 14 90 0 1 -14 14 H 271 a 14 14 90 0 1 -14 -14 V 521.0 H 90" fill="#e0e0e0" stroke="#e0e0e0" stroke-width="0"/>
	<rect x="257" y="496" width="90" height="50" fill="none" rx="14" stroke="#878787" stroke-width="2"/>
	<line x1="257" y1="521" x2="347" y2="521" stroke="#878787" stroke-width="1"/>
	<text x="264" y="513.7" fill="#000000" font-family="Verdana" font-size="12">etre_classee</text>
</g>

<!-- Association a_sortie -->
<line x1="302" y1="126" x2="302" y2="34" stroke="#878787" stroke-width="2"/>
<text x="307.0" y="76" fill="#b2182b" font-family="Verdana" font-size="12">1,N</text>
<line x1="414" y1="126" x2="302" y2="34" stroke="#878787" stroke-width="2"/>
<text x="346" y="103.226133455" fill="#b2182b" font-family="Verdana" font-size="12">1,N</text>
<g id="association-a_sortie">
	<path d="M 320 9 a 14 14 90 0 1 14 14 V 34 h -64 V 23 a 14 14 90 0 1 14 -14" fill="#bababa" stroke="#bababa" stroke-width="0"/>
	<path d="M 334 34.0 v 11 a 14 14 90 0 1 -14 14 H 284 a 14 14 90 0 1 -14 -14 V 34.0 H 64" fill="#e0e0e0" stroke="#e0e0e0" stroke-width="0"/>
	<rect x="270" y="9" width="64" height="50" fill="none" rx="14" stroke="#878787" stroke-width="2"/>
	<line x1="270" y1="34" x2="334" y2="34" stroke="#878787" stroke-width="1"/>
	<text x="277" y="26.7" fill="#000000" font-family="Verdana" font-size="12">a_sortie</text>
</g>

<!-- Entity ALBUM -->
<g id="entity-ALBUM">
	<g id="frame-ALBUM">
		<rect x="373" y="67" width="82" height="25" fill="#f4a582" stroke="#f4a582" stroke-width="0"/>
		<rect x="373" y="92.0" width="82" height="93" fill="#fddbc7" stroke="#fddbc7" stroke-width="0"/>
		<rect x="373" y="67" width="82" height="118" fill="none" stroke="#d6604d" stroke-width="2"/>
		<line x1="373" y1="92" x2="455" y2="92" stroke="#d6604d" stroke-width="1"/>
	</g>
	<text x="392" y="84.7" fill="#000000" font-family="Verdana" font-size="12">ALBUM</text>
	<text x="378" y="109.7" fill="#000000" font-family="Verdana" font-size="12">idAlbum</text>
	<line x1="378" y1="112" x2="428" y2="112" stroke="#000000" stroke-width="1"/>
	<text x="378" y="126.8" fill="#000000" font-family="Verdana" font-size="12">nomAlbum</text>
	<text x="378" y="143.8" fill="#000000" font-family="Verdana" font-size="12">coverAlbum</text>
	<text x="378" y="160.8" fill="#000000" font-family="Verdana" font-size="12">idArtist</text>
	<text x="378" y="177.8" fill="#000000" font-family="Verdana" font-size="12">date_sortie</text>
</g>

<!-- Entity ARTISTE -->
<g id="entity-ARTISTE">
	<g id="frame-ARTISTE">
		<rect x="263" y="84" width="78" height="25" fill="#f4a582" stroke="#f4a582" stroke-width="0"/>
		<rect x="263" y="109.0" width="78" height="59" fill="#fddbc7" stroke="#fddbc7" stroke-width="0"/>
		<rect x="263" y="84" width="78" height="84" fill="none" stroke="#d6604d" stroke-width="2"/>
		<line x1="263" y1="109" x2="341" y2="109" stroke="#d6604d" stroke-width="1"/>
	</g>
	<text x="275" y="101.7" fill="#000000" font-family="Verdana" font-size="12">ARTISTE</text>
	<text x="268" y="126.8" fill="#000000" font-family="Verdana" font-size="12">idArtiste</text>
	<line x1="268" y1="129" x2="319" y2="129" stroke="#000000" stroke-width="1"/>
	<text x="268" y="143.8" fill="#000000" font-family="Verdana" font-size="12">nomArtiste</text>
	<text x="268" y="160.8" fill="#000000" font-family="Verdana" font-size="12">bio</text>
</g>

<!-- Entity PLAYLIST -->
<g id="entity-PLAYLIST">
	<g id="frame-PLAYLIST">
		<rect x="136" y="596" width="80" height="25" fill="#f4a582" stroke="#f4a582" stroke-width="0"/>
		<rect x="136" y="621.0" width="80" height="43" fill="#fddbc7" stroke="#fddbc7" stroke-width="0"/>
		<rect x="136" y="596" width="80" height="68" fill="none" stroke="#d6604d" stroke-width="2"/>
		<line x1="136" y1="621" x2="216" y2="621" stroke="#d6604d" stroke-width="1"/>
	</g>
	<text x="147" y="613.7" fill="#000000" font-family="Verdana" font-size="12">PLAYLIST</text>
	<text x="141" y="638.8" fill="#000000" font-family="Verdana" font-size="12">idPlaylist</text>
	<line x1="141" y1="641" x2="195" y2="641" stroke="#000000" stroke-width="1"/>
	<text x="141" y="655.8" fill="#000000" font-family="Verdana" font-size="12">nomPlaylist</text>
</g>

<!-- Entity CLASSEMENT -->
<g id="entity-CLASSEMENT">
	<g id="frame-CLASSEMENT">
		<rect x="248" y="596" width="108" height="25" fill="#f4a582" stroke="#f4a582" stroke-width="0"/>
		<rect x="248" y="621.0" width="108" height="43" fill="#fddbc7" stroke="#fddbc7" stroke-width="0"/>
		<rect x="248" y="596" width="108" height="68" fill="none" stroke="#d6604d" stroke-width="2"/>
		<line x1="248" y1="621" x2="356" y2="621" stroke="#d6604d" stroke-width="1"/>
	</g>
	<text x="261" y="613.7" fill="#000000" font-family="Verdana" font-size="12">CLASSEMENT</text>
	<text x="253" y="638.8" fill="#000000" font-family="Verdana" font-size="12">idClassement</text>
	<line x1="253" y1="641" x2="334" y2="641" stroke="#000000" stroke-width="1"/>
	<text x="253" y="655.8" fill="#000000" font-family="Verdana" font-size="12">nomClassement</text>
</g>

<!-- Entity LOCALISATION -->
<g id="entity-LOCALISATION">
	<g id="frame-LOCALISATION">
		<rect x="124" y="92" width="104" height="25" fill="#f4a582" stroke="#f4a582" stroke-width="0"/>
		<rect x="124" y="117.0" width="104" height="43" fill="#fddbc7" stroke="#fddbc7" stroke-width="0"/>
		<rect x="124" y="92" width="104" height="68" fill="none" stroke="#d6604d" stroke-width="2"/>
		<line x1="124" y1="117" x2="228" y2="117" stroke="#d6604d" stroke-width="1"/>
	</g>
	<text x="129" y="109.7" fill="#000000" font-family="Verdana" font-size="12">LOCALISATION</text>
	<text x="129" y="134.8" fill="#000000" font-family="Verdana" font-size="12">idLocalisation</text>
	<line x1="129" y1="137" x2="211" y2="137" stroke="#000000" stroke-width="1"/>
	<text x="129" y="151.8" fill="#000000" font-family="Verdana" font-size="12">pays</text>
</g>

<!-- Entity CLIENT -->
<g id="entity-CLIENT">
	<g id="frame-CLIENT">
		<rect x="9" y="571" width="92" height="25" fill="#f4a582" stroke="#f4a582" stroke-width="0"/>
		<rect x="9" y="596.0" width="92" height="93" fill="#fddbc7" stroke="#fddbc7" stroke-width="0"/>
		<rect x="9" y="571" width="92" height="118" fill="none" stroke="#d6604d" stroke-width="2"/>
		<line x1="9" y1="596" x2="101" y2="596" stroke="#d6604d" stroke-width="1"/>
	</g>
	<text x="32" y="588.7" fill="#000000" font-family="Verdana" font-size="12">CLIENT</text>
	<text x="14" y="613.7" fill="#000000" font-family="Verdana" font-size="12">idClient</text>
	<line x1="14" y1="616" x2="60" y2="616" stroke="#000000" stroke-width="1"/>
	<text x="14" y="630.8" fill="#000000" font-family="Verdana" font-size="12">nomClient</text>
	<text x="14" y="647.8" fill="#000000" font-family="Verdana" font-size="12">prenomClient</text>
	<text x="14" y="664.8" fill="#000000" font-family="Verdana" font-size="12">mdpClient</text>
	<text x="14" y="681.8" fill="#000000" font-family="Verdana" font-size="12">mailClient</text>
</g>

<!-- Entity MUSIQUE -->
<g id="entity-MUSIQUE">
	<g id="frame-MUSIQUE">
		<rect x="138" y="285" width="76" height="25" fill="#f4a582" stroke="#f4a582" stroke-width="0"/>
		<rect x="138" y="310.0" width="76" height="161" fill="#fddbc7" stroke="#fddbc7" stroke-width="0"/>
		<rect x="138" y="285" width="76" height="186" fill="none" stroke="#d6604d" stroke-width="2"/>
		<line x1="138" y1="310" x2="214" y2="310" stroke="#d6604d" stroke-width="1"/>
	</g>
	<text x="146" y="302.7" fill="#000000" font-family="Verdana" font-size="12">MUSIQUE</text>
	<text x="143" y="327.7" fill="#000000" font-family="Verdana" font-size="12">idMusique</text>
	<line x1="143" y1="330" x2="204" y2="330" stroke="#000000" stroke-width="1"/>
	<text x="143" y="344.7" fill="#000000" font-family="Verdana" font-size="12">titre</text>
	<text x="143" y="361.7" fill="#000000" font-family="Verdana" font-size="12">duree</text>
	<text x="143" y="378.8" fill="#000000" font-family="Verdana" font-size="12">urlSpotify</text>
	<text x="143" y="395.8" fill="#000000" font-family="Verdana" font-size="12">idSpotify</text>
	<text x="143" y="412.8" fill="#000000" font-family="Verdana" font-size="12">tempo</text>
	<text x="143" y="429.8" fill="#000000" font-family="Verdana" font-size="12">dansability</text>
	<text x="143" y="446.8" fill="#000000" font-family="Verdana" font-size="12">energy</text>
	<text x="143" y="463.8" fill="#000000" font-family="Verdana" font-size="12">popularity</text>
</g>

<!-- Entity GENRE -->
<g id="entity-GENRE">
	<g id="frame-GENRE">
		<rect x="18" y="92" width="74" height="25" fill="#f4a582" stroke="#f4a582" stroke-width="0"/>
		<rect x="18" y="117.0" width="74" height="43" fill="#fddbc7" stroke="#fddbc7" stroke-width="0"/>
		<rect x="18" y="92" width="74" height="68" fill="none" stroke="#d6604d" stroke-width="2"/>
		<line x1="18" y1="117" x2="92" y2="117" stroke="#d6604d" stroke-width="1"/>
	</g>
	<text x="33" y="109.7" fill="#000000" font-family="Verdana" font-size="12">GENRE</text>
	<text x="23" y="134.8" fill="#000000" font-family="Verdana" font-size="12">idGenres</text>
	<line x1="23" y1="137" x2="77" y2="137" stroke="#000000" stroke-width="1"/>
	<text x="23" y="151.8" fill="#000000" font-family="Verdana" font-size="12">nomGenre</text>
</g>
</svg>